# xmcd CD database file
#
# Track frame offsets:
#	150
#	18565
#	47115
#	63815
#	91557
#	107377
#	125147
#	139180
#	158910
#	177122
#	197237
#	215235
#	228290
#
# Disc length: 3229 seconds
#
# Revision: 0
# Processed by: cddbd v1.5.1PL0 Copyright (c) Steve Scherf et al.
# Submitted via: CDex 1.51
#
DISCID=b00c9b0d
DTITLE=Little Feat - When the shit hits the fan
DYEAR=1973
DGENRE=Blues
TTITLE0=Apolitical blues
TTITLE1=Get no shadow
TTITLE2=Willin´ 
TTITLE3=On your way down
TTITLE4=Walk it on back
TTITLE5=Sailin´ shoes
TTITLE6=Train`s running
TTITLE7=Fat man in the bathtub
TTITLE8=Cold cold cold
TTITLE9=Dixie chicken
TTITLE10=Tribe face boogie
TTITLE11=Teenage nervous breakdown
TTITLE12=Rock N´Roll
EXTD=YEAR: 1973
EXTT0=
EXTT1=
EXTT2=
EXTT3=
EXTT4=
EXTT5=
EXTT6=
EXTT7=
EXTT8=
EXTT9=
EXTT10=
EXTT11=
EXTT12=
PLAYORDER=
